<?xml version="1.0" standalone="no"?>
<!DOCTYPE svg PUBLIC "-//W3C//DTD SVG 20010904//EN"
 "http://www.w3.org/TR/2001/REC-SVG-20010904/DTD/svg10.dtd">
<svg version="1.0" xmlns="http://www.w3.org/2000/svg"
 width="478.000000pt" height="478.000000pt" viewBox="0 0 478.000000 478.000000"
 preserveAspectRatio="xMidYMid meet">
<metadata>
Created by potrace 1.14, written by Peter Selinger 2001-2017
</metadata>
<g transform="translate(0.000000,478.000000) scale(0.100000,-0.100000)"
fill="#000000" stroke="none">
<path d="M4319 2963 c-33 -77 -37 -201 -9 -309 12 -49 26 -93 30 -99 20 -27
40 -120 42 -205 l3 -95 39 -3 c48 -4 70 13 34 27 -14 5 -36 23 -48 40 -32 46
-20 82 43 133 29 22 52 43 52 47 -1 22 -70 134 -95 153 -16 12 -30 28 -30 35
0 8 -7 27 -15 44 -9 16 -13 34 -10 39 10 15 35 -1 35 -23 0 -11 3 -17 7 -14 3
4 1 31 -6 59 -17 76 -19 96 -20 161 -1 73 -23 77 -52 10z"/>
<path d="M3949 2978 c0 -2 -2 -46 -4 -98 -1 -52 -12 -137 -24 -187 -12 -51
-20 -96 -19 -100 1 -5 -9 -30 -22 -58 -12 -27 -23 -60 -23 -72 -1 -28 2 -27
-39 -3 -19 11 -72 27 -118 36 -99 18 -120 28 -120 54 0 44 80 69 144 45 54
-21 71 -16 120 34 l38 38 -29 21 c-73 52 -235 73 -300 39 -75 -39 -113 -103
-113 -188 0 -65 24 -115 69 -144 45 -29 184 -55 223 -41 19 7 33 5 49 -5 21
-14 24 -13 57 23 48 53 62 59 117 49 38 -7 45 -6 41 5 -3 8 -1 14 5 14 6 0 9
6 6 13 -2 6 0 26 5 42 4 17 11 58 14 93 6 54 4 66 -13 85 -38 41 -52 128 -28
166 15 26 27 -9 30 -83 1 -42 5 -80 10 -84 14 -13 -1 152 -17 188 -9 19 -21
52 -28 72 -9 31 -28 59 -31 46z"/>
<path d="M4153 2907 c-28 -40 -58 -93 -66 -118 -13 -38 -24 -177 -17 -214 2
-5 2 -14 1 -19 -3 -16 42 -146 51 -146 4 0 16 4 26 10 9 5 30 15 46 20 25 9
27 14 21 38 -4 15 -7 45 -7 67 1 112 0 130 -9 133 -5 2 -7 8 -3 13 3 5 1 9 -4
9 -10 0 -24 35 -25 61 0 9 -5 16 -12 16 -7 0 -10 -8 -7 -20 3 -13 1 -18 -6
-13 -6 3 -18 -4 -27 -16 -13 -19 -17 -20 -25 -9 -11 18 5 51 24 51 8 0 13 8
12 17 0 10 7 19 19 21 16 2 17 1 5 -7 -9 -7 -10 -11 -3 -11 7 0 16 8 22 17 8
15 11 14 23 -12 l13 -29 7 44 c10 65 9 158 0 164 -5 3 -32 -27 -59 -67z"/>
<path d="M160 2732 c-5 -2 -10 -37 -10 -78 l0 -74 74 0 c47 0 77 -4 83 -12 5
-7 8 -104 7 -218 -1 -113 0 -213 3 -223 4 -15 15 -17 81 -15 l77 3 1 200 c1
110 2 214 3 232 l1 32 82 3 81 3 0 68 c0 37 -3 70 -6 74 -7 6 -459 11 -477 5z"/>
<path d="M1236 2732 c-17 -4 -18 -22 -14 -235 l3 -232 30 -54 c46 -83 86 -105
204 -109 84 -4 103 -1 145 18 53 26 90 72 111 143 17 56 22 467 5 468 -46 2
-142 0 -145 -3 -2 -2 -5 -94 -5 -204 -2 -221 -9 -253 -61 -274 -55 -23 -112
12 -122 73 -3 18 -5 114 -5 215 0 100 -2 185 -5 188 -6 7 -115 11 -141 6z"/>
<path d="M1863 2732 l-23 -3 0 -310 0 -310 82 3 82 3 -1 118 c0 74 3 120 10
124 6 4 52 7 101 7 l91 1 3 63 3 62 -100 0 c-111 0 -115 2 -108 75 l2 30 118
3 c64 1 117 6 118 10 5 29 3 106 -2 114 -6 10 -319 18 -376 10z"/>
<path d="M2347 2732 c-15 -3 -17 -28 -17 -259 0 -200 3 -254 13 -250 6 2 30
10 52 17 98 31 104 35 102 81 -2 26 2 43 10 46 7 3 63 6 125 6 l113 2 3 62 3
62 -123 3 -123 3 -5 35 c-10 60 -10 60 136 60 l134 0 0 65 c0 64 0 65 -27 65
-238 4 -383 4 -396 2z"/>
<path d="M2893 2732 l-23 -3 0 -242 c1 -239 1 -242 24 -271 l24 -29 28 28 c16
16 42 38 59 49 24 17 30 28 30 56 0 31 3 35 25 35 17 0 31 -11 48 -35 28 -43
37 -46 58 -25 12 11 26 15 43 11 14 -4 44 -9 65 -13 l39 -6 -19 33 c-10 18
-29 39 -42 48 l-23 15 29 18 c79 47 111 145 78 234 -22 56 -54 82 -114 91 -48
7 -289 12 -329 6z m256 -133 c17 -6 31 -16 32 -22 0 -7 2 -20 4 -29 2 -10 -5
-28 -15 -40 -15 -18 -28 -22 -76 -23 l-59 0 -1 45 c-1 25 3 53 8 63 10 20 58
23 107 6z"/>
<path d="M822 2668 c-16 -29 -51 -93 -77 -143 -26 -49 -67 -126 -90 -170 -123
-230 -121 -206 -25 -249 111 -50 245 -63 360 -36 72 17 180 68 180 85 0 15
-13 40 -180 353 -62 116 -119 212 -126 212 -7 0 -26 -24 -42 -52z"/>
<path d="M4406 2691 c-3 -4 1 -17 9 -27 8 -10 15 -14 15 -7 0 6 -5 15 -10 18
-6 4 -8 11 -5 16 4 5 4 9 1 9 -3 0 -7 -4 -10 -9z"/>
<path d="M4512 2461 c-23 -11 -53 -32 -67 -47 -63 -68 -4 -123 148 -138 42 -4
66 -19 48 -30 -5 -4 -36 -15 -68 -25 -43 -14 -65 -16 -88 -9 -16 5 -38 12 -47
15 -23 7 -34 -22 -17 -43 12 -15 45 -15 164 1 81 11 125 47 109 88 -8 21 -39
31 -133 44 -75 10 -96 18 -99 40 -5 32 61 73 115 73 65 0 71 33 8 45 -19 3
-46 -2 -73 -14z"/>
<path d="M4185 2415 c-54 -19 -108 -78 -100 -108 15 -51 77 -78 190 -81 52 -2
43 -30 -16 -49 -61 -20 -98 -21 -134 -5 -21 10 -29 9 -43 -6 -16 -16 -16 -18
3 -32 22 -17 97 -15 192 6 62 14 99 50 83 81 -14 26 -17 27 -126 44 -54 9
-102 21 -105 27 -23 37 54 92 119 86 29 -2 37 1 40 16 7 36 -35 45 -103 21z"/>
<path d="M3867 2369 c-15 -18 -30 -42 -33 -55 -4 -13 -11 -24 -18 -24 -7 0
-10 -22 -9 -67 1 -38 2 -74 3 -80 0 -7 13 -27 28 -44 23 -26 35 -31 71 -31 52
1 99 27 124 70 18 30 18 32 1 39 -11 4 -23 -1 -34 -15 -47 -58 -121 -72 -142
-26 -18 40 -2 73 46 93 53 23 86 64 86 105 0 44 -12 57 -56 62 -34 4 -42 1
-67 -27z m74 -53 c-11 -20 -49 -46 -66 -46 -16 0 0 36 26 62 22 23 33 28 41
20 9 -9 8 -18 -1 -36z"/>
<path d="M4503 2383 c-20 -7 -15 -33 5 -33 24 0 32 8 25 26 -5 15 -10 16 -30
7z"/>
<path d="M4181 2339 c-37 -22 -32 -38 12 -43 21 -3 28 3 36 25 15 44 2 49 -48
18z"/>
<path d="M3736 2332 c-44 -10 -103 -62 -134 -117 -12 -22 -13 -21 -32 53 -9
35 -15 42 -36 42 -34 0 -39 -20 -16 -77 11 -26 28 -83 37 -126 16 -68 21 -78
39 -75 18 3 20 11 21 63 2 87 56 177 116 190 36 8 54 29 37 42 -7 5 -22 8 -32
5z"/>
<path d="M3190 2280 c0 -6 -8 -14 -17 -17 -10 -4 -33 -18 -51 -31 -28 -21 -31
-27 -19 -39 11 -11 19 -11 51 2 21 9 42 13 46 8 5 -4 10 -28 13 -53 2 -25 8
-56 11 -70 4 -14 9 -45 11 -70 8 -79 25 -184 35 -208 19 -43 33 -14 26 52 -19
166 -19 166 -5 167 8 1 19 2 24 4 6 1 33 3 61 3 49 2 53 4 69 37 21 45 9 87
-37 134 -42 42 -79 61 -136 68 -26 3 -55 10 -64 15 -12 6 -18 5 -18 -2z m154
-82 c52 -23 88 -120 49 -130 -10 -2 -40 -4 -68 -3 -48 0 -49 1 -57 35 -5 19
-11 54 -14 78 l-5 43 34 -5 c20 -3 47 -11 61 -18z"/>
<path d="M3283 2174 c-3 -8 -1 -26 5 -40 10 -20 19 -24 52 -24 49 0 52 15 9
53 -35 31 -57 34 -66 11z"/>
<path d="M2562 2259 c-85 -16 -210 -59 -216 -74 -3 -8 4 -21 16 -29 18 -13 21
-25 20 -68 -1 -65 47 -164 87 -180 79 -29 160 -1 242 85 31 32 35 42 19 52 -5
3 -25 -9 -44 -28 -66 -67 -145 -99 -186 -77 -21 11 -63 88 -55 101 6 8 78 27
130 33 46 6 166 43 180 57 16 16 -59 9 -165 -16 -24 -5 -114 -19 -129 -20 -8
0 -18 14 -23 30 -6 24 -4 33 11 46 18 15 173 57 236 63 17 2 33 4 38 5 4 0 7
8 7 16 0 12 -13 15 -62 14 -35 -1 -82 -5 -106 -10z"/>
<path d="M3719 2247 c-37 -25 -85 -106 -76 -129 4 -12 16 -13 63 -7 32 4 63
14 69 22 14 20 7 137 -9 137 -7 0 -28 -10 -47 -23z"/>
<path d="M3447 2240 c-21 -25 -22 -22 9 -67 58 -86 91 -57 43 39 -5 10 -9 25
-9 33 0 21 -22 19 -43 -5z"/>
<path d="M2748 2234 c-8 -8 -57 -24 -109 -34 -130 -27 -179 -42 -179 -57 0
-24 21 -23 155 3 75 14 142 23 150 20 12 -4 15 4 15 34 0 45 -10 56 -32 34z"/>
<path d="M2964 2196 l-51 -53 -24 38 c-25 41 -59 53 -59 20 0 -10 13 -28 29
-40 16 -13 32 -29 35 -37 5 -13 -64 -149 -111 -221 -14 -20 -14 -23 0 -23 8 0
22 11 30 24 9 13 22 30 29 37 14 16 33 47 56 92 8 16 20 31 27 34 8 2 37 -14
65 -36 54 -42 117 -68 144 -58 28 11 17 24 -24 30 -29 4 -56 18 -95 52 -30 26
-55 52 -55 59 0 6 23 34 50 61 54 54 62 75 28 75 -14 0 -42 -21 -74 -54z"/>
<path d="M4173 2198 c2 -7 12 -13 22 -13 10 0 20 6 23 13 2 7 -6 12 -23 12
-17 0 -25 -5 -22 -12z"/>
<path d="M3006 2141 c-19 -21 -14 -43 9 -35 17 7 25 27 16 43 -5 8 -13 6 -25
-8z"/>
<path d="M4413 2135 c0 -8 6 -15 14 -15 7 0 13 7 13 15 0 8 -6 15 -13 15 -8 0
-14 -7 -14 -15z"/>
<path d="M2330 2125 c0 -8 7 -15 15 -15 9 0 12 6 9 15 -4 8 -10 15 -15 15 -5
0 -9 -7 -9 -15z"/>
<path d="M4185 2100 c-3 -5 1 -10 9 -10 9 0 19 0 23 -1 4 0 9 4 11 10 5 14
-35 14 -43 1z"/>
<path d="M371 1999 c-53 -11 -84 -49 -85 -104 0 -40 4 -51 27 -71 32 -27 83
-39 131 -30 31 6 34 10 38 46 2 22 -1 41 -7 43 -22 8 -35 -6 -35 -38 0 -38
-18 -47 -62 -32 -55 18 -62 117 -11 157 31 24 51 25 80 5 21 -15 41 -5 29 14
-8 12 -66 18 -105 10z"/>
<path d="M534 1898 c1 -96 2 -103 21 -103 16 0 20 7 22 38 0 21 3 41 6 43 3 3
15 -14 28 -37 18 -31 31 -43 52 -46 l27 -4 -31 51 -32 51 22 15 c23 17 28 63
9 82 -7 7 -37 12 -68 12 l-56 0 0 -102z m96 56 c0 -24 -19 -54 -35 -54 -11 0
-15 11 -15 38 0 21 3 42 6 45 10 10 44 -12 44 -29z"/>
<path d="M724 1897 c-1 -99 0 -103 20 -102 20 2 21 7 22 103 1 98 1 102 -20
102 -21 0 -22 -4 -22 -103z"/>
<path d="M824 1897 l-1 -102 53 0 c31 0 53 4 52 10 -2 6 -16 10 -33 10 l-30 0
2 93 c2 89 1 92 -20 92 -21 0 -22 -4 -23 -103z"/>
<path d="M977 1903 c1 -54 2 -100 2 -103 2 -11 111 -6 111 6 0 8 -12 10 -35 7
l-35 -5 0 96 c0 93 -1 96 -22 96 -22 0 -23 -3 -21 -97z"/>
<path d="M1245 1980 c-15 -17 -16 -24 -6 -47 11 -23 9 -29 -15 -54 -51 -53 -4
-108 69 -81 17 6 35 8 41 4 13 -10 56 -13 56 -5 0 4 -7 14 -16 24 -15 17 -15
20 5 47 11 16 18 32 14 35 -3 4 -16 -7 -28 -24 l-23 -30 -22 31 c-20 28 -20
33 -8 48 26 30 28 40 12 56 -21 22 -57 20 -79 -4z m64 -4 c9 -10 7 -19 -7 -36
l-19 -23 -7 27 c-10 42 9 61 33 32z m-17 -120 c29 -36 27 -46 -7 -46 -31 0
-49 24 -41 55 8 33 16 32 48 -9z"/>
<path d="M1519 1983 c-3 -97 2 -178 10 -186 18 -18 33 7 33 50 -1 36 1 38 29
39 36 2 55 17 61 49 9 44 -16 65 -78 65 -45 0 -54 -3 -55 -17z m91 -36 c0 -25
-17 -47 -37 -47 -13 0 -19 71 -7 83 13 12 44 -14 44 -36z"/>
<path d="M1691 1897 c1 -94 3 -103 20 -104 23 -2 21 -11 23 110 2 95 1 97 -21
97 -23 0 -23 -2 -22 -103z"/>
<path d="M1780 1990 c0 -5 20 -10 45 -10 25 0 45 -4 45 -10 0 -10 -51 -99 -81
-142 -11 -14 -19 -28 -19 -30 0 -3 36 -4 80 -4 48 1 79 5 78 11 -2 5 -25 9
-52 7 l-48 -3 33 58 c18 32 40 69 49 83 35 52 36 50 -49 50 -47 0 -81 -4 -81
-10z"/>
<path d="M1970 1990 c0 -5 20 -10 45 -10 25 0 45 -3 45 -6 0 -3 -22 -44 -50
-91 -27 -47 -50 -86 -50 -87 0 -6 160 1 166 7 9 8 -5 10 -63 8 -24 -1 -43 1
-43 3 0 3 23 43 50 90 28 47 50 87 50 90 0 3 -34 6 -75 6 -43 0 -75 -4 -75
-10z"/>
<path d="M2223 1983 c-3 -10 -21 -54 -40 -98 -18 -44 -33 -83 -33 -87 0 -19
18 -5 31 25 10 23 21 32 39 33 37 2 48 -5 59 -36 7 -20 16 -28 30 -27 12 1 21
4 21 7 0 3 -17 47 -38 99 -38 96 -56 118 -69 84z m24 -78 c11 -34 11 -35 -17
-35 -28 0 -28 1 -17 35 6 19 13 35 17 35 4 0 11 -16 17 -35z"/>
</g>
</svg>
